<?xml version="1.0" encoding="UTF-8"?>
<svg xmlns="http://www.w3.org/2000/svg" xmlns:xlink="http://www.w3.org/1999/xlink" viewBox="0 0 100 100" width="100px" height="100px">
<g id="surface81673411">
<path style=" stroke:none;fill-rule:nonzero;fill:rgb(20.392157%,59.607846%,85.882354%);fill-opacity:1;" d="M 40 4 C 39.320312 4 38.679688 4.363281 38.300781 4.941406 C 20.320312 33.402344 8.539062 85.359375 8.039062 87.558594 C 7.917969 88.097656 8.039062 88.660156 8.339844 89.101562 L 12.339844 95.101562 C 12.417969 95.242188 12.539062 95.378906 12.660156 95.480469 C 15.320312 86.421875 27.300781 48.160156 48.300781 14.941406 C 48.679688 14.363281 49.320312 14 50 14 C 50.679688 14 51.320312 14.363281 51.699219 14.941406 C 56.699219 22.863281 61.578125 31.679688 66.179688 41.121094 C 66.660156 42.121094 66.261719 43.320312 65.28125 43.800781 L 28.941406 61.761719 C 28.542969 62.722656 28.160156 63.679688 27.78125 64.621094 C 34.660156 62.402344 49.300781 58.058594 70.339844 53.839844 C 71.261719 53.660156 72.179688 54.160156 72.558594 55.019531 C 80.777344 74 85.738281 90 87.359375 95.460938 C 87.378906 95.460938 87.402344 95.441406 87.421875 95.421875 L 91.421875 91.421875 C 91.902344 90.941406 92.101562 90.238281 91.960938 89.578125 C 91.460938 87.296875 79.679688 33.402344 61.699219 4.941406 C 61.320312 4.363281 60.679688 4 60 4 Z M 50 19.78125 C 42.578125 31.921875 36.359375 44.582031 31.339844 56.121094 L 40.558594 51.558594 C 43.398438 45.097656 46.558594 38.460938 50 32 C 52.101562 35.941406 54.082031 39.941406 55.960938 43.941406 L 61.71875 41.101562 C 57.957031 33.523438 54.019531 26.359375 50 19.78125 Z M 69.519531 58.101562 C 45.238281 63.042969 29.960938 68.039062 25.859375 69.460938 C 25.300781 70.859375 24.800781 72.21875 24.300781 73.539062 C 34.480469 71.820312 63.742188 67.699219 72.960938 66.398438 C 71.902344 63.71875 70.757812 60.941406 69.519531 58.101562 Z M 74.460938 70.238281 C 72.980469 70.4375 70.660156 70.761719 67.820312 71.160156 C 72.21875 82.839844 75.339844 92.78125 76.859375 97.859375 L 83.519531 96.539062 C 82.320312 92.539062 79.300781 82.71875 74.460938 70.238281 Z M 64.558594 73.859375 C 65.980469 83.9375 66 91.921875 66 92 C 66 92.761719 66.421875 93.460938 67.101562 93.78125 L 72.21875 96.339844 C 70.617188 91.160156 68 83.121094 64.558594 73.859375 Z M 35.738281 75.800781 C 35.378906 75.859375 35.019531 75.902344 34.679688 75.960938 C 31.601562 84.300781 29.261719 91.539062 27.78125 96.339844 L 32.898438 93.78125 C 33.578125 93.460938 34 92.761719 34 92 C 34 91.941406 34.039062 86.480469 35.738281 75.800781 Z M 30.160156 76.660156 C 26.71875 77.179688 24.058594 77.617188 22.679688 77.898438 C 19.5 86.679688 17.441406 93.378906 16.5 96.539062 L 23.121094 97.859375 C 24.402344 93.597656 26.820312 85.921875 30.160156 76.660156 Z M 30.160156 76.660156 "/>
</g>
</svg>
